<svg id="Layer_1" data-name="Layer 1" xmlns="http://www.w3.org/2000/svg" viewBox="0 0 289.32 294.27"><defs><style>.cls-1{fill:#fcfcfd;}.cls-2{fill:#ff3e58;}</style></defs><path class="cls-1" d="M156.16,235.44a20.64,20.64,0,0,0,.05,4.52c1.53,6.68-2.46,10.13-7.41,13.08-2.29,1.36-4.89,1.77-7.08.48-4.66-2.73-9.08-5.79-8.87-12.23.16-4.8,0-9.61,0-14.41a6.18,6.18,0,0,0-.62-3.59c-2-2.93-14.36-4.18-17-1.79s-3.77,6-5.82,8.93c-2.76,3.89-5.33,8-10.59,9.09-7.51,1.59-13.13-2.65-13.42-10.25-.16-4.05,1.42-7.48,3.58-10.74,1.9-2.86,3.9-5.64,4.83-9,1.34-4.88.06-9.14-3.65-11.65-2.38-1.6-8.92-.89-11.52,1.9s-5.9,3.74-8.62,6c-3.71,3.1-8.52,2.08-12.25-1.38-2.37-2.2-5.11-3.73-5.24-7.75-.15-4.87,1.29-8.31,5.29-11.25,3.79-2.79,8-4.7,11.9-7.32,4.77-3.26,5.18-5.28,2.35-10.26a8.68,8.68,0,0,1-.68-1.93c-2.05-7.35-2.2-7.47-9.79-7.54-3.29,0-6.59-.19-9.88,0-4.5.22-7.68-1.1-10.12-5.35-4.8-8.36-.18-17.39,9.58-17.75,4.39-.17,8.78-.08,13.17-.1,5,0,6.27-1.15,6.64-6.13A9.4,9.4,0,0,1,72.86,124c2.19-3,1.61-5-1.47-7.49-5-4.08-11.19-6.22-16-10.59-4.49-4.07-3.08-14.23,2.35-16.9,6.6-3.25,12.36-1.52,17.77,2.25,2.68,1.86,5.66,2.63,8.51,3.91,5.74,2.58,11-3.89,10.43-8.55a14.87,14.87,0,0,0-3.61-8.16C87.2,74.31,86.49,69.14,85.74,64c-.39-2.69,5.6-9.73,9.26-10.6,3.44-.83,5.83.46,8.65,3.36A68.73,68.73,0,0,1,113.81,71c2.57,4.47,5.44,5.31,9.92,2.82,2.7-1.5,6.63-.78,8.21-4.14,1.88-4,.89-8.36,1-12.56,0-2.19-.05-4.34.21-6.55,1.3-10.9,13.91-11.85,21.23-7.16,1,.65,1.14,2.23,1.28,3.67.59,6,.4,12.07.41,18.1,0,3.75,1.45,6.2,5.3,7,1.15.24,2.2.92,3.33,1.27,6.93,2.16,9.36,1.18,13.38-5.2,1.83-2.9,3.84-5.69,5.64-8.6,4.65-7.52,12.76-7.39,18.38-.57,3.09,3.74,4.8,7.71,2.46,11.2-2.66,4-4.27,8.48-7.29,12.15-2.21,2.67-2.92,5.64-1.23,8.75a9.25,9.25,0,0,0,9.51,4.31,24.94,24.94,0,0,0,8.12-3.85c4.36-3,9-5,14.64-3.83,4.77,1,7.16,4,7.88,8.36s-.33,8.35-3.9,11.07a49.11,49.11,0,0,1-9.33,6c-5.48,2.5-6.73,5.52-5.44,11.36,0,.13.05.26.08.4,2,10,2,10,12.15,10.16,2.88,0,5.78-.19,8.65,0,7.11.57,12.92,6.06,12.2,12-.78,6.47-4.68,11.54-13.11,11.43-4.53-.06-9.06,0-13.59-.11-3.54-.06-5.31,1.63-5.53,5.16a26,26,0,0,1-.83,4.45c-1.44,5.87,0,9.31,5.5,12a81.46,81.46,0,0,1,7.44,4.38c4.6,2.94,6.9,6.88,6.08,12.43-.9,6.16-4.66,9.71-10.4,11.38-2.7.79-4.75-.88-6.76-2.29-3-2.1-5.83-4.45-8.92-6.41s-6.32-3.46-10-1.7-5.26,5-5.42,9c-.06,1.26-.13,2.83.75,3.52,4,3.15,4.54,8.37,7.54,12.07s2.77,7.49.6,11.15c-2.37,4-5.9,6.25-10.92,6-8.56-.48-11.46-7.26-14.8-13.23s-5.9-7.55-12.55-5.93c-9.64,2.34-9.64,2.34-9.46,12.44,0,.82,0,1.65,0,2.47Zm-10.29-37.85c5.25-.5,10.87.65,15.72-2.05,6-3.36,12.55-5.77,17.86-10.6a50.55,50.55,0,0,0,9.12-11c7.1-11.49,7.9-24.26,6.26-37.34-.87-6.94-3.93-13.38-7.32-19-7.45-12.38-19.65-19-33.63-21.87-14.3-2.92-27.38.76-39.08,9.17-8.37,6-15.41,13.14-16.86,24.09a5.08,5.08,0,0,1-.7,1.9c-5.5,8.88-4.36,18.32-2.22,27.78.57,2.51,2.53,4.51,3.16,7.11,3,12.08,11.63,19.37,21.61,25.59C127.82,196.41,136.65,197.63,145.87,197.59Z"/><path class="cls-2" d="M27.75,228.38H26.52c-7.54-.13-9.32-2.12-11.73-9.33-1.61-4.82-.7-9,.52-13.41a4.24,4.24,0,0,1,2.12-2.86A36.72,36.72,0,0,0,24.89,198a6.29,6.29,0,0,1,8.32.42,30.88,30.88,0,0,0,5.29,3.66c4,2.54,4.78,7.17,4.9,11C43.7,222.62,37.24,228.46,27.75,228.38Z"/><path class="cls-2" d="M260.73,65.19c1.24,0,2.48.1,3.71,0,6.46-.6,9,4.41,10.56,10.23a18,18,0,0,1,.66,6.89c-.65,4.71-1.93,9.18-7.84,10-1.1.16-2.08,1.23-3.08,1.94-1.71,1.22-3.62,1.78-5.3.34-1.85-1.59-4.05-2.18-6.19-3-5.93-2.4-8.15-7.8-5.93-13.94a49.3,49.3,0,0,0,2.23-7c.9-4.51,3.9-5.54,7.89-5.32,1.09.06,2.19,0,3.29,0Z"/><path class="cls-2" d="M259.91,228.34c-3.79.74-6.17-2.15-9.53-4.62-4.17-3.06-5-6.59-3.73-10,1.76-4.59,1.57-11.06,8.35-12.52a4.42,4.42,0,0,0,2.54-2c3-4.25,7.06-4.07,10.65-.34,4.24,4.42,7.23,9.14,7.12,15.44C275.16,223.36,269.84,228.45,259.91,228.34Z"/><path class="cls-2" d="M77.41,274.59c-1.5,0-3-.09-4.52,0-7,.45-9-6.57-9.82-12-.74-5,2.39-8,4.41-11.61a4.85,4.85,0,0,1,3-2c4.68-1.48,9.49-1.07,14.27-.8a4.56,4.56,0,0,1,2.23,1,15.27,15.27,0,0,1,4.51,19.54C88.72,274.43,87.21,275.07,77.41,274.59Z"/><path class="cls-2" d="M29.08,65.27c2.22,0,3.73,0,5.24,0,2.7,0,4.79.5,5.38,3.76.25,1.35,1.7,2.44,2.36,3.77,2.72,5.55,2.1,11.09-.74,16.32C39.39,92.66,27.88,95,24.48,92.83A3.47,3.47,0,0,0,23,92.1c-6-.29-7.5-5.2-8.68-9.42-1.05-3.77,1.43-7.5,2.7-11.22C19.29,64.84,24.26,64.65,29.08,65.27Z"/><path class="cls-2" d="M200.76,263c.57-2.11-1.11-5.33,1.09-8,1.62-1.93,1.87-5.51,4.85-5.67,5.5-.3,11.19-2.93,16.5-.16,3.5,1.83,5.15,5.58,5.67,9.47a44.73,44.73,0,0,1-.27,9.8c-.36,4-2.43,5.53-5.95,6a59.71,59.71,0,0,1-19.18-1,3.1,3.1,0,0,1-2.72-3.51C200.8,267.82,200.76,265.76,200.76,263Z"/><path class="cls-2" d="M78.59,18.72c9.48-1.79,15,7.46,14.78,15.18-.15,6-7.2,13.1-13.35,13.16-9.41.09-17-5.48-16.56-12.72C64.06,25,67,17.47,78.59,18.72Z"/><path class="cls-2" d="M146.55,294.27c-12.16,0-18.64-9.88-16.09-20.67,1.18-5,3.82-5.84,7.57-6.8,5.46-1.39,10.77-1.48,16.07.76a3.61,3.61,0,0,1,2.41,2.45c2.32,7.6.47,14.82-1.94,22-.46,1.36-1.77,1.7-3,1.86C149.54,294.12,147.48,294.2,146.55,294.27Z"/><path class="cls-2" d="M15,162.39c-2.8-.21-5.79-.08-7.42-3.19-.23-.43-.84-.69-1.31-1C1,155.17-.56,151.15.16,144.89c.58-5,2.1-8.64,7.72-9.18A2.86,2.86,0,0,0,9.75,135c2.22-3.11,5.42-4.05,8.64-2.78a16.23,16.23,0,0,1,8.67,7.76c3.56,7.05,1.93,13.28-4,18.71C20.63,160.88,18.65,163.1,15,162.39Z"/><path class="cls-2" d="M275.72,162.53c-2.58-.17-5.28-.11-6.46-3.22-.16-.42-.76-.75-1.22-1-2.38-1.18-6-1-6.64-4.2-1-4.91-1-10,1.12-14.69a5,5,0,0,1,2.36-2.17,30.15,30.15,0,0,0,6.77-4.38c3-2.56,7.1-1.26,10.1.43,7.5,4.22,11.05,18.24,3,24.58C281.88,160.12,279.75,162.88,275.72,162.53Z"/><path class="cls-2" d="M216.48,46.5c-13.41,0-16.67-7.51-15.34-18.11.74-5.88,9.78-10.87,16.9-9.93,9,1.18,13.86,11.69,10.53,20.19C226.09,45,221.63,46,216.48,46.5Z"/><path class="cls-2" d="M145,27.53c-9.26-.15-12.48-2.1-15.05-10.07-1.31-4.09,1.39-7.81,3.21-11.3,4-7.62,11.24-6.07,17.93-5.95a3.2,3.2,0,0,1,3.35,2.34c1.52,3.83,1.21,8.17,4.5,11.62,2.17,2.28-3.1,11.74-6.44,12.51A23.78,23.78,0,0,1,145,27.53Z"/><path class="cls-2" d="M157.55,148a30.21,30.21,0,0,1-3.62,12.41,3.23,3.23,0,0,1-2.58,1.78c-5.75.86-11.24,2.15-15.73-4-2-2.75-3.85-4.79-4.54-8.44a14.48,14.48,0,0,1,2.56-10.8c1.81-2.79,3.16-6.9,8.44-7,9.19-.13,14.87,4.41,15.46,13.87C157.57,146.27,157.55,146.69,157.55,148Z"/></svg>